HIERARCHY
ROOT SpineBase
{
  OFFSET 0.000000 0.000000 0.000000
  CHANNELS 6 Xposition Yposition Zposition Zrotation Xrotation Yrotation
  JOINT SpineMid
  {
    OFFSET 0.000000 19.942306 0.000000
    CHANNELS 3 Zrotation Xrotation Yrotation
    JOINT SpineShoulder
    {
      OFFSET -0.274403 15.041691 -0.580731
      CHANNELS 3 Zrotation Xrotation Yrotation
      JOINT Neck
      {
        OFFSET -0.219937 5.059443 -0.456798
        CHANNELS 3 Zrotation Xrotation Yrotation
        JOINT Head
        {
          OFFSET 4.719962 8.983564 4.302298
          CHANNELS 3 Zrotation Xrotation Yrotation
          End Site
          {
            OFFSET 0 0 0
          }
        }
      }
      JOINT ShoulderLeft
      {
        OFFSET -3.418624 -11.607940 -9.911598
        CHANNELS 3 Zrotation Xrotation Yrotation
        JOINT ElbowLeft
        {
          OFFSET 2.895440 -21.850098 0.335460
          CHANNELS 3 Zrotation Xrotation Yrotation
          JOINT WristLeft
          {
            OFFSET -22.002176 13.861007 -4.743779
            CHANNELS 3 Zrotation Xrotation Yrotation
            JOINT HandLeft
            {
              OFFSET -35.146407 21.381412 -2.057416
              CHANNELS 3 Zrotation Xrotation Yrotation
              JOINT HandTipLeft
              {
                OFFSET -3.699174 2.542978 4.361381
                CHANNELS 3 Zrotation Xrotation Yrotation
                End Site
                {
                  OFFSET 0 0 0
                }
              }
              JOINT ThumbLeft
              {
                OFFSET -0.344191 -1.202751 -4.650342
                CHANNELS 3 Zrotation Xrotation Yrotation
                End Site
                {
                  OFFSET 0 0 0
                }
              }
            }
          }
        }
      }
      JOINT ShoulderRight
      {
        OFFSET 20.161383 3.241794 -2.130465
        CHANNELS 3 Zrotation Xrotation Yrotation
        JOINT ElbowRight
        {
          OFFSET 19.278338 -7.867776 5.768570
          CHANNELS 3 Zrotation Xrotation Yrotation
          JOINT WristRight
          {
            OFFSET -23.935519 10.657797 -2.596771
            CHANNELS 3 Zrotation Xrotation Yrotation
            JOINT HandRight
            {
              OFFSET -11.563218 9.153499 -3.124106
              CHANNELS 3 Zrotation Xrotation Yrotation
              JOINT HandTipRight
              {
                OFFSET -0.864179 0.879297 -0.707277
                CHANNELS 3 Zrotation Xrotation Yrotation
                End Site
                {
                  OFFSET 0 0 0
                }
              }
              JOINT ThumbRight
              {
                OFFSET 0.387822 -0.869266 -3.223959
                CHANNELS 3 Zrotation Xrotation Yrotation
                End Site
                {
                  OFFSET 0 0 0
                }
              }
            }
          }
        }
      }
    }
  }
  JOINT HipLeft
  {
    OFFSET -6.160180 -1.853125 -6.425278
    CHANNELS 3 Zrotation Xrotation Yrotation
    JOINT KneeLeft
    {
      OFFSET 33.730968 -28.526939 -18.460170
      CHANNELS 3 Zrotation Xrotation Yrotation
      JOINT AnkleLeft
      {
        OFFSET 20.729070 -34.423333 0.182609
        CHANNELS 3 Zrotation Xrotation Yrotation
        JOINT FootLeft
        {
          OFFSET 2.747109 -0.513988 -12.213500
          CHANNELS 3 Zrotation Xrotation Yrotation
          End Site
          {
            OFFSET 0 0 0
          }
        }
      }
    }
  }
  JOINT HipRight
  {
    OFFSET 3.252388 4.115666 0.549680
    CHANNELS 3 Zrotation Xrotation Yrotation
    JOINT KneeRight
    {
      OFFSET -21.999978 12.025382 10.723754
      CHANNELS 3 Zrotation Xrotation Yrotation
      JOINT AnkleRight
      {
        OFFSET 22.006285 -29.153430 -2.513785
        CHANNELS 3 Zrotation Xrotation Yrotation
        JOINT FootRight
        {
          OFFSET 8.398488 -4.636557 -7.854953
          CHANNELS 3 Zrotation Xrotation Yrotation
          End Site
          {
            OFFSET 0 0 0
          }
        }
      }
    }
  }
}
MOTION
Frames: 6
Frame Time: 0.033333
208.221989 65.341212 411.210585 -0.000000 0.000000 -36.539409 -0.000000 0.000000 36.539409 -0.000000 0.000000 0.000000 -0.000000 0.000000 0.000000 0.000000 0.000000 0.000000 -0.000000 0.000000 0.000000 -0.000000 0.000000 0.000000 -0.000000 0.000000 0.000000 -0.000000 0.000000 0.000000 0.000000 0.000000 0.000000 0.000000 0.000000 0.000000 -0.000000 0.000000 0.000000 -0.000000 0.000000 0.000000 -0.000000 0.000000 0.000000 -0.000000 0.000000 0.000000 0.000000 0.000000 0.000000 0.000000 0.000000 0.000000 -0.000000 0.000000 36.539409 -0.000000 0.000000 0.000000 -0.000000 0.000000 0.000000 0.000000 0.000000 0.000000 -0.000000 0.000000 36.539409 -0.000000 0.000000 0.000000 -0.000000 0.000000 0.000000 0.000000 0.000000 0.000000
208.257946 65.340172 411.168261 -0.006686 0.021940 -37.374277 0.018631 -0.013377 37.374280 -0.000000 0.000000 0.000000 0.718685 0.711496 -0.722698 0.000000 0.000000 0.000000 -5.247690 0.414555 -0.006732 6.796797 -0.705480 0.120614 -1.548282 0.296280 -0.056882 -0.461848 -1.136956 -0.886687 0.000000 0.000000 0.000000 0.000000 0.000000 0.000000 -0.000000 0.000000 0.000000 -0.000000 0.000000 0.000000 0.264045 -0.911910 -1.053820 -0.120022 22.062859 25.755704 0.000000 0.000000 0.000000 0.000000 0.000000 0.000000 0.018631 -0.013377 37.374280 -0.000000 0.000000 0.000000 -0.000000 0.000000 0.000000 0.000000 0.000000 0.000000 0.018631 -0.013377 37.374280 -0.000000 0.000000 0.000000 -0.000000 0.000000 0.000000 0.000000 0.000000 0.000000
208.289765 65.342689 411.133949 -0.010639 0.038712 -38.023861 0.032227 -0.023942 38.023871 -0.000000 0.000000 0.000000 1.317609 1.311384 -1.335840 0.000000 0.000000 0.000000 -10.152324 0.801072 0.021291 12.892729 -1.314890 0.263576 -2.737150 0.533698 -0.080188 -0.787864 -1.930820 -1.530420 0.000000 0.000000 0.000000 0.000000 0.000000 0.000000 -0.000000 0.000000 0.000000 -0.000000 0.000000 0.000000 0.720575 -1.897913 -2.110954 -5.346999 30.448728 36.842554 0.000000 0.000000 0.000000 0.000000 0.000000 0.000000 0.032227 -0.023942 38.023871 -0.000000 0.000000 0.000000 -0.000000 0.000000 0.000000 0.000000 0.000000 0.000000 0.142732 -0.664278 37.243995 0.299577 0.576627 0.779032 -0.000000 0.000000 0.000000 0.000000 0.000000 0.000000
208.317444 65.348763 411.107649 -0.011868 0.050337 -38.499725 0.040624 -0.032006 38.499742 -0.000000 0.000000 0.000000 1.794951 1.805086 -1.837539 0.000000 0.000000 0.000000 -14.020686 1.103383 0.066662 17.580017 -1.774611 0.386962 -3.552969 0.708528 -0.073460 -0.987839 -2.432194 -1.961078 0.000000 0.000000 0.000000 0.000000 0.000000 0.000000 -0.000000 0.000000 0.000000 -0.000000 0.000000 0.000000 1.375504 -2.965838 -3.165559 -10.849348 34.216893 42.840102 0.000000 0.000000 0.000000 0.000000 0.000000 0.000000 0.040624 -0.032006 38.499742 -0.000000 0.000000 0.000000 -0.000000 0.000000 0.000000 0.000000 0.000000 0.000000 0.210798 -0.858258 37.451681 0.367357 0.759412 1.046948 -0.000000 0.000000 0.000000 0.000000 0.000000 0.000000
208.340985 65.358395 411.089360 -0.010379 0.056833 -38.810369 0.043708 -0.037781 38.810388 -0.000000 0.000000 0.000000 2.148989 2.196943 -2.226128 0.000000 0.000000 0.000000 -16.217589 1.273538 0.101499 20.213242 -2.044049 0.441162 -3.987216 0.818581 -0.039528 -1.069005 -2.673642 -2.199028 0.000000 0.000000 0.000000 0.000000 0.000000 0.000000 -0.000000 0.000000 0.000000 -0.000000 0.000000 0.000000 2.234847 -4.123200 -4.210165 -16.469126 36.105698 46.559827 0.000000 0.000000 0.000000 0.000000 0.000000 0.000000 0.043708 -0.037781 38.810388 -0.000000 0.000000 0.000000 -0.000000 0.000000 0.000000 0.000000 0.000000 0.000000 0.272415 -0.961442 37.574550 0.381996 0.871517 1.234928 -0.203694 -0.571048 -0.698451 0.000000 0.000000 0.000000
208.360386 65.371584 411.079082 -0.006172 0.058208 -38.961459 0.041400 -0.041380 38.961477 -0.000000 0.000000 0.000000 2.377897 2.490055 -2.499968 0.000000 0.000000 0.000000 -16.359742 1.284640 0.104017 20.403477 -2.102577 0.391467 -4.035675 0.862996 0.019720 -1.035917 -2.673493 -2.256919 0.000000 0.000000 0.000000 0.000000 0.000000 0.000000 -0.000000 0.000000 0.000000 -0.000000 0.000000 0.000000 3.304512 -5.376746 -5.235333 -22.348329 36.954718 48.944749 0.000000 0.000000 0.000000 0.000000 0.000000 0.000000 0.041400 -0.041380 38.961477 -0.000000 0.000000 0.000000 -0.000000 0.000000 0.000000 0.000000 0.000000 0.000000 0.325998 -0.974538 37.617823 0.344176 0.912866 1.343435 -0.183770 -0.589557 -0.766420 0.000000 0.000000 0.000000
